<?xml version="1.0" standalone="no"?>
<!DOCTYPE svg PUBLIC "-//W3C//DTD SVG 20010904//EN"
 "http://www.w3.org/TR/2001/REC-SVG-20010904/DTD/svg10.dtd">
<svg version="1.0" xmlns="http://www.w3.org/2000/svg"
 width="1280.000000pt" height="425.000000pt" viewBox="0 0 1280.000000 425.000000"
 preserveAspectRatio="xMidYMid meet">
<g transform="translate(0.000000,425.000000) scale(0.100000,-0.100000)"
fill="#000000" stroke="none">
<path d="M9665 4242 c-5 -5 -28 -15 -50 -22 -64 -20 -245 -119 -310 -171 -67
-53 -163 -152 -214 -222 -40 -57 -134 -288 -167 -412 -13 -49 -33 -115 -44
-146 -17 -49 -18 -65 -9 -116 14 -77 71 -168 138 -221 175 -138 454 -183 579
-93 56 41 75 89 76 189 1 80 0 85 -27 108 -20 17 -40 24 -70 24 -45 -1 -136
-20 -177 -39 -14 -6 -63 -20 -108 -31 -200 -50 -276 26 -251 250 33 289 185
544 413 688 214 136 501 152 801 46 258 -92 525 -313 670 -554 174 -291 250
-624 216 -945 -30 -284 -101 -423 -426 -845 -409 -530 -572 -698 -977 -1003
-259 -195 -464 -297 -599 -297 -94 0 -222 35 -688 186 -685 224 -1257 441
-1767 670 -120 54 -478 227 -794 384 -709 352 -997 478 -1326 580 -371 115
-609 160 -1059 200 -159 14 -547 12 -790 -5 -196 -13 -439 -40 -456 -51 -15
-9 -325 -75 -421 -89 -192 -29 -328 -15 -328 34 0 25 14 35 80 55 30 10 89 33
130 51 338 151 528 211 940 296 675 140 1352 171 2050 93 303 -34 749 -110
990 -169 326 -80 784 -220 960 -294 180 -75 416 -179 624 -276 114 -53 308
-136 430 -185 121 -48 277 -112 346 -142 147 -65 430 -164 585 -207 282 -77
514 -100 705 -71 41 7 122 13 180 15 162 5 277 37 411 115 178 104 304 304
224 356 -21 14 -32 15 -73 5 -74 -19 -198 -95 -303 -187 -79 -69 -301 -168
-419 -188 -207 -34 -384 -21 -647 48 -184 49 -425 131 -563 191 -47 20 -134
56 -195 80 -60 24 -187 77 -280 118 -94 41 -240 102 -325 137 -85 34 -247 104
-360 155 -316 143 -411 182 -595 245 -482 163 -1047 285 -1660 357 -220 25
-252 27 -740 27 -469 1 -527 -1 -725 -22 -118 -13 -267 -32 -330 -43 -63 -11
-153 -27 -200 -34 -130 -22 -668 -158 -820 -208 -74 -24 -236 -92 -360 -150
-294 -137 -355 -156 -537 -166 -132 -7 -147 -10 -207 -40 -90 -44 -144 -108
-218 -259 -71 -147 -111 -195 -194 -232 -61 -28 -176 -119 -317 -252 -42 -40
-77 -77 -77 -83 0 -5 9 -25 20 -42 26 -44 70 -45 126 -3 74 53 325 199 382
220 69 26 104 16 132 -41 34 -66 140 -129 250 -147 161 -27 240 -33 328 -22
147 19 202 62 202 159 0 35 -4 43 -26 51 -26 10 -112 -14 -224 -62 -120 -53
-218 -63 -280 -29 -19 11 -63 34 -98 52 -75 39 -109 83 -91 121 16 37 84 76
179 104 47 14 107 36 133 50 108 56 418 193 492 218 118 40 172 44 247 16 112
-40 230 -106 363 -201 219 -156 311 -212 555 -339 533 -278 877 -442 1840
-877 206 -92 711 -265 1165 -397 712 -207 1300 -302 1875 -301 531 1 960 67
1260 193 52 22 146 56 209 76 l114 37 116 -11 c64 -6 171 -25 237 -41 220 -54
682 -81 1039 -61 591 34 1075 170 1485 417 141 85 235 159 381 299 63 61 148
140 189 176 81 71 112 126 148 260 50 187 51 203 21 296 -37 113 -100 162
-196 151 -57 -6 -93 -39 -99 -93 -3 -23 7 -99 25 -189 40 -195 40 -244 0 -323
-39 -78 -200 -244 -318 -328 -218 -154 -526 -325 -717 -398 -330 -125 -720
-176 -1204 -157 -283 11 -859 65 -875 82 -7 8 -5 14 5 20 8 5 65 39 125 75
159 95 502 324 577 386 114 94 324 297 431 416 366 408 615 817 677 1115 68
326 39 621 -93 939 -51 122 -166 315 -239 401 -312 364 -557 476 -1103 504
-58 3 -104 1 -110 -5z m-6155 -1896 c229 -11 418 -45 810 -147 157 -41 493
-154 700 -236 222 -87 298 -125 750 -369 542 -292 1673 -791 1967 -868 70 -18
290 -86 488 -150 198 -65 437 -138 530 -162 94 -25 174 -49 180 -55 15 -15 -5
-26 -85 -47 -41 -11 -127 -36 -190 -56 -298 -94 -860 -150 -1262 -127 -681 39
-936 73 -1278 171 -74 21 -189 53 -255 70 -413 109 -847 251 -992 324 -37 18
-104 45 -148 59 -226 72 -479 186 -1170 527 -738 365 -1074 543 -1151 611 -35
31 -81 61 -103 68 -67 19 -391 206 -391 225 0 12 398 114 551 141 47 9 144 20
215 24 129 9 637 7 834 -3z m-2061 -122 c83 -24 78 -29 -99 -87 -104 -35 -320
-127 -539 -232 -76 -36 -118 -52 -125 -45 -6 6 -3 16 8 29 24 26 169 120 296
191 30 17 107 62 170 101 l115 70 61 -6 c34 -3 84 -12 113 -21z m-489 -7 c0
-7 -17 -23 -38 -34 -20 -12 -47 -33 -60 -46 -27 -29 -99 -63 -110 -53 -11 12
81 91 140 120 59 30 68 31 68 13z"/>
</g>
</svg>
